<svg width="96" height="96" viewBox="0 0 96 96" fill="none" xmlns="http://www.w3.org/2000/svg">
<path d="M58.7064 21.6499C58.8761 20.6954 59.706 20 60.6755 20H77.3239C78.2934 20 79.1233 20.6954 79.293 21.6499L86.9997 65L88.6217 83.6535C88.825 85.9905 86.9826 88 84.6368 88H53.3626C51.0167 88 49.1744 85.9905 49.3776 83.6535L50.9997 65L58.7064 21.6499Z" fill="#B6783F"/>
<path fill-rule="evenodd" clip-rule="evenodd" d="M49.0151 64.7378L56.7374 21.2999C57.0768 19.3908 58.7366 18 60.6756 18H77.324C79.2631 18 80.9229 19.3907 81.2623 21.2999L88.9846 64.7378L90.6144 83.4802C90.9192 86.9858 88.1557 90 84.6369 90H53.3628C49.8439 90 47.0805 86.9858 47.3853 83.4802L49.0151 64.7378ZM60.6756 20C59.7061 20 58.8762 20.6954 58.7065 21.6499L50.9998 65L49.3778 83.6535C49.1746 85.9905 51.0169 88 53.3628 88H84.6369C86.9828 88 88.8251 85.9905 88.6219 83.6535L86.9998 65L79.2932 21.6499C79.1235 20.6954 78.2936 20 77.324 20H60.6756Z" fill="#672001"/>
<path d="M53.3802 88H84.6199C86.9721 88 88.8165 85.9803 88.6035 83.6379L87.3308 69.6379C87.1435 67.5775 85.416 66 83.3472 66H54.6529C52.5841 66 50.8567 67.5775 50.6694 69.6379L49.3966 83.6379C49.1837 85.9803 51.0281 88 53.3802 88Z" fill="#D99C64"/>
<path d="M50.6864 69.6584L49.5 83.5L80 66H54.6718C52.5951 66 50.8638 67.5893 50.6864 69.6584Z" fill="#EAAA70"/>
<path d="M62 22L55 62L76 22H62Z" fill="#C18751"/>
<path fill-rule="evenodd" clip-rule="evenodd" d="M61.1641 21.0136C61.7088 21.1044 62.0769 21.6196 61.9861 22.1644L54.9861 64.1644C54.8953 64.7091 54.38 65.0772 53.8353 64.9864C53.2905 64.8956 52.9225 64.3803 53.0133 63.8356L60.0133 21.8356C60.1041 21.2908 60.6193 20.9228 61.1641 21.0136Z" fill="#FFC351"/>
<path fill-rule="evenodd" clip-rule="evenodd" d="M55.6641 54.0136C56.2088 54.1044 56.5769 54.6196 56.4861 55.1644L54.9861 64.1644C54.8953 64.7091 54.38 65.0772 53.8353 64.9864C53.2905 64.8956 52.9225 64.3803 53.0133 63.8356L54.5133 54.8356C54.6041 54.2908 55.1193 53.9228 55.6641 54.0136Z" fill="#FFD991"/>
<path fill-rule="evenodd" clip-rule="evenodd" d="M54.8403 69C54.3202 69 53.887 69.3987 53.8438 69.917L53.4966 74.083C53.4507 74.6334 52.9674 75.0424 52.417 74.9965C51.8666 74.9507 51.4576 74.4673 51.5035 73.917L51.8507 69.7509C51.9803 68.196 53.2801 67 54.8403 67H59.0001C59.5524 67 60.0001 67.4477 60.0001 68C60.0001 68.5523 59.5524 69 59.0001 69H54.8403Z" fill="#FFFAED"/>
<path d="M79 50.5C79 51.3284 77.8807 52 76.5 52C75.1193 52 74 51.3284 74 50.5C74 49.6716 75.1193 49 76.5 49C77.8807 49 79 49.6716 79 50.5Z" fill="#955C28"/>
<path d="M80 44C80 44.5523 79.1046 45 78 45C76.8954 45 76 44.5523 76 44C76 43.4477 76.8954 43 78 43C79.1046 43 80 43.4477 80 44Z" fill="#955C28"/>
<path d="M77 39C77 39.5523 76.1046 40 75 40C73.8954 40 73 39.5523 73 39C73 38.4477 73.8954 38 75 38C76.1046 38 77 38.4477 77 39Z" fill="#955C28"/>
<path d="M78 32.5C78 32.7761 77.5523 33 77 33C76.4477 33 76 32.7761 76 32.5C76 32.2239 76.4477 32 77 32C77.5523 32 78 32.2239 78 32.5Z" fill="#955C28"/>
<path d="M80 36.5C80 36.7761 79.5523 37 79 37C78.4477 37 78 36.7761 78 36.5C78 36.2239 78.4477 36 79 36C79.5523 36 80 36.2239 80 36.5Z" fill="#955C28"/>
<path d="M75 42.5C75 42.7761 74.5523 43 74 43C73.4477 43 73 42.7761 73 42.5C73 42.2239 73.4477 42 74 42C74.5523 42 75 42.2239 75 42.5Z" fill="#955C28"/>
<path d="M81 47.5C81 47.7761 80.5523 48 80 48C79.4477 48 79 47.7761 79 47.5C79 47.2239 79.4477 47 80 47C80.5523 47 81 47.2239 81 47.5Z" fill="#955C28"/>
<path d="M76 46.5C76 46.7761 75.5523 47 75 47C74.4477 47 74 46.7761 74 46.5C74 46.2239 74.4477 46 75 46C75.5523 46 76 46.2239 76 46.5Z" fill="#955C28"/>
<path d="M83 55C83 55.5523 82.1046 56 81 56C79.8954 56 79 55.5523 79 55C79 54.4477 79.8954 54 81 54C82.1046 54 83 54.4477 83 55Z" fill="#955C28"/>
<path d="M84 85.5C84 86.3284 83.3284 87 82.5 87C81.6716 87 81 86.3284 81 85.5C81 84.6716 81.6716 84 82.5 84C83.3284 84 84 84.6716 84 85.5Z" fill="#EAAA70"/>
<path d="M87 83C87 83.5523 86.5523 84 86 84C85.4477 84 85 83.5523 85 83C85 82.4477 85.4477 82 86 82C86.5523 82 87 82.4477 87 83Z" fill="#EAAA70"/>
<path d="M78 86C78 86.5523 78.4477 87 79 87C79.5523 87 80 86.5523 80 86C80 85.4477 79.5523 85 79 85C78.4477 85 78 85.4477 78 86Z" fill="#EAAA70"/>
<path d="M82 81C82 81.5523 82.4477 82 83 82C83.5523 82 84 81.5523 84 81C84 80.4477 83.5523 80 83 80C82.4477 80 82 80.4477 82 81Z" fill="#EAAA70"/>
<path d="M78 82.5C78 83.3284 78.6716 84 79.5 84C80.3284 84 81 83.3284 81 82.5C81 81.6716 80.3284 81 79.5 81C78.6716 81 78 81.6716 78 82.5Z" fill="#EAAA70"/>
<path d="M73 85C73 85.5523 73.4477 86 74 86C74.5523 86 75 85.5523 75 85C75 84.4477 74.5523 84 74 84C73.4477 84 73 84.4477 73 85Z" fill="#EAAA70"/>
<path d="M85 78C85 78.5523 85.4477 79 86 79C86.5523 79 87 78.5523 87 78C87 77.4477 86.5523 77 86 77C85.4477 77 85 77.4477 85 78Z" fill="#EAAA70"/>
<path d="M16.7064 21.6499C16.8761 20.6954 17.706 20 18.6755 20H35.3239C36.2934 20 37.1233 20.6954 37.293 21.6499L44.9997 65L46.6217 83.6535C46.825 85.9905 44.9826 88 42.6368 88H11.3626C9.01672 88 7.17442 85.9905 7.37764 83.6535L8.99968 65L16.7064 21.6499Z" fill="#D99A60"/>
<path fill-rule="evenodd" clip-rule="evenodd" d="M7.01508 64.7378L14.7374 21.2999C15.0768 19.3908 16.7366 18 18.6756 18H35.324C37.2631 18 38.9229 19.3907 39.2623 21.2999L46.9846 64.7378L48.6144 83.4802C48.9192 86.9858 46.1557 90 42.6369 90H11.3628C7.84393 90 5.08048 86.9858 5.38531 83.4802L7.01508 64.7378ZM18.6756 20C17.7061 20 16.8762 20.6954 16.7065 21.6499L8.99983 65L7.37779 83.6535C7.17457 85.9905 9.01687 88 11.3628 88H42.6369C44.9828 88 46.8251 85.9905 46.6219 83.6535L44.9998 65L37.2932 21.6499C37.1235 20.6954 36.2936 20 35.324 20H18.6756Z" fill="#672001"/>
<path d="M11.3802 88H42.6199C44.9721 88 46.8165 85.9803 46.6035 83.6379L45.3308 69.6379C45.1435 67.5775 43.416 66 41.3472 66H12.6529C10.5841 66 8.85666 67.5775 8.66936 69.6379L7.39664 83.6379C7.18368 85.9803 9.02808 88 11.3802 88Z" fill="#D99C64"/>
<path d="M20 22L13 62L34 22H20Z" fill="#E5A971"/>
<path fill-rule="evenodd" clip-rule="evenodd" d="M19.1641 21.0136C19.7088 21.1044 20.0769 21.6196 19.9861 22.1644L12.9861 64.1644C12.8953 64.7091 12.38 65.0772 11.8353 64.9864C11.2905 64.8956 10.9225 64.3803 11.0133 63.8356L18.0133 21.8356C18.1041 21.2908 18.6193 20.9228 19.1641 21.0136Z" fill="#FBBF88"/>
<path fill-rule="evenodd" clip-rule="evenodd" d="M13.6641 54.0136C14.2088 54.1044 14.5769 54.6196 14.4861 55.1644L12.9861 64.1644C12.8953 64.7091 12.38 65.0772 11.8353 64.9864C11.2905 64.8956 10.9225 64.3803 11.0133 63.8356L12.5133 54.8356C12.6041 54.2908 13.1193 53.9228 13.6641 54.0136Z" fill="#FFCD9E"/>
<path d="M8.68642 69.6584L7.5 83.5L38 66H12.6718C10.5951 66 8.86378 67.5893 8.68642 69.6584Z" fill="#EAAA70"/>
<path fill-rule="evenodd" clip-rule="evenodd" d="M12.8159 69C12.3009 69 11.8701 69.3911 11.8205 69.9037L10.4954 83.5963C10.4422 84.146 9.95346 84.5485 9.40375 84.4953C8.85403 84.4422 8.45152 83.9534 8.50472 83.4037L9.82982 69.711C9.97863 68.1733 11.2709 67 12.8159 67H40.0001C40.5524 67 41.0001 67.4477 41.0001 68C41.0001 68.5523 40.5524 69 40.0001 69H12.8159Z" fill="#FFCA99"/>
<path fill-rule="evenodd" clip-rule="evenodd" d="M12.8403 69C12.3202 69 11.887 69.3987 11.8438 69.917L11.4966 74.083C11.4507 74.6334 10.9674 75.0424 10.417 74.9965C9.86663 74.9507 9.45764 74.4673 9.50351 73.917L9.85069 69.7509C9.98027 68.196 11.2801 67 12.8403 67H17.0001C17.5524 67 18.0001 67.4477 18.0001 68C18.0001 68.5523 17.5524 69 17.0001 69H12.8403Z" fill="#FFFAED"/>
<path d="M42 85.5C42 86.3284 41.3284 87 40.5 87C39.6716 87 39 86.3284 39 85.5C39 84.6716 39.6716 84 40.5 84C41.3284 84 42 84.6716 42 85.5Z" fill="#EAAA70"/>
<path d="M45 83C45 83.5523 44.5523 84 44 84C43.4477 84 43 83.5523 43 83C43 82.4477 43.4477 82 44 82C44.5523 82 45 82.4477 45 83Z" fill="#EAAA70"/>
<path d="M36 86C36 86.5523 36.4477 87 37 87C37.5523 87 38 86.5523 38 86C38 85.4477 37.5523 85 37 85C36.4477 85 36 85.4477 36 86Z" fill="#EAAA70"/>
<path d="M40 81C40 81.5523 40.4477 82 41 82C41.5523 82 42 81.5523 42 81C42 80.4477 41.5523 80 41 80C40.4477 80 40 80.4477 40 81Z" fill="#EAAA70"/>
<path d="M36 82.5C36 83.3284 36.6716 84 37.5 84C38.3284 84 39 83.3284 39 82.5C39 81.6716 38.3284 81 37.5 81C36.6716 81 36 81.6716 36 82.5Z" fill="#EAAA70"/>
<path d="M31 85C31 85.5523 31.4477 86 32 86C32.5523 86 33 85.5523 33 85C33 84.4477 32.5523 84 32 84C31.4477 84 31 84.4477 31 85Z" fill="#EAAA70"/>
<path d="M43 78C43 78.5523 43.4477 79 44 79C44.5523 79 45 78.5523 45 78C45 77.4477 44.5523 77 44 77C43.4477 77 43 77.4477 43 78Z" fill="#EAAA70"/>
<path d="M38.7064 9.64993C38.8761 8.69538 39.706 8 40.6755 8H57.3239C58.2934 8 59.1233 8.69537 59.293 9.64993L66.9997 53L68.6217 71.6535C68.825 73.9905 66.9826 76 64.6368 76H33.3626C31.0167 76 29.1744 73.9905 29.3776 71.6535L30.9997 53L38.7064 9.64993Z" fill="#D99A60"/>
<path fill-rule="evenodd" clip-rule="evenodd" d="M29.0151 52.7378L36.7374 9.29987C37.0768 7.39075 38.7366 6 40.6756 6H57.324C59.2631 6 60.9229 7.39075 61.2623 9.29987L68.9846 52.7378L70.6144 71.4802C70.9192 74.9858 68.1557 78 64.6369 78H33.3628C29.8439 78 27.0805 74.9858 27.3853 71.4802L29.0151 52.7378ZM40.6756 8C39.7061 8 38.8762 8.69538 38.7065 9.64993L30.9998 53L29.3778 71.6535C29.1746 73.9905 31.0169 76 33.3628 76H64.6369C66.9828 76 68.8251 73.9905 68.6219 71.6535L66.9998 53L59.2932 9.64993C59.1235 8.69537 58.2936 8 57.324 8H40.6756Z" fill="#672001"/>
<path d="M33.3802 76H64.6199C66.9721 76 68.8165 73.9803 68.6035 71.6379L67.3308 57.6379C67.1435 55.5775 65.416 54 63.3472 54H34.6529C32.5841 54 30.8567 55.5775 30.6694 57.6379L29.3966 71.6379C29.1837 73.9803 31.0281 76 33.3802 76Z" fill="#F6B981"/>
<path d="M42 10L35 50L56 10H42Z" fill="#E6A971"/>
<path fill-rule="evenodd" clip-rule="evenodd" d="M41.1641 9.01358C41.7088 9.10437 42.0769 9.6196 41.9861 10.1644L34.9861 52.1644C34.8953 52.7091 34.38 53.0772 33.8353 52.9864C33.2905 52.8956 32.9225 52.3803 33.0133 51.8356L40.0133 9.83557C40.1041 9.2908 40.6193 8.92278 41.1641 9.01358Z" fill="#FBBF88"/>
<path fill-rule="evenodd" clip-rule="evenodd" d="M35.6641 42.0136C36.2088 42.1044 36.5769 42.6196 36.4861 43.1644L34.9861 52.1644C34.8953 52.7091 34.38 53.0772 33.8353 52.9864C33.2905 52.8956 32.9225 52.3803 33.0133 51.8356L34.5133 42.8356C34.6041 42.2908 35.1193 41.9228 35.6641 42.0136Z" fill="#FFCD9E"/>
<path d="M30.6864 57.6584L29.5 71.5L60 54H34.6718C32.5951 54 30.8638 55.5893 30.6864 57.6584Z" fill="#FFC691"/>
<path fill-rule="evenodd" clip-rule="evenodd" d="M34.8159 57C34.3009 57 33.8701 57.3911 33.8205 57.9037L32.4954 71.5963C32.4422 72.146 31.9535 72.5485 31.4037 72.4953C30.854 72.4422 30.4515 71.9534 30.5047 71.4037L31.8298 57.711C31.9786 56.1733 33.2709 55 34.8159 55H62.0001C62.5524 55 63.0001 55.4477 63.0001 56C63.0001 56.5523 62.5524 57 62.0001 57H34.8159Z" fill="#FFDBBA"/>
<path fill-rule="evenodd" clip-rule="evenodd" d="M34.8403 57C34.3202 57 33.887 57.3987 33.8438 57.917L33.4966 62.083C33.4507 62.6334 32.9674 63.0424 32.417 62.9965C31.8666 62.9507 31.4576 62.4673 31.5035 61.917L31.8507 57.7509C31.9803 56.196 33.2801 55 34.8403 55H39.0001C39.5524 55 40.0001 55.4477 40.0001 56C40.0001 56.5523 39.5524 57 39.0001 57H34.8403Z" fill="#FFFAED"/>
<path d="M59 38.5C59 39.3284 57.8807 40 56.5 40C55.1193 40 54 39.3284 54 38.5C54 37.6716 55.1193 37 56.5 37C57.8807 37 59 37.6716 59 38.5Z" fill="#C18752"/>
<path d="M60 32C60 32.5523 59.1046 33 58 33C56.8954 33 56 32.5523 56 32C56 31.4477 56.8954 31 58 31C59.1046 31 60 31.4477 60 32Z" fill="#C18752"/>
<path d="M57 27C57 27.5523 56.1046 28 55 28C53.8954 28 53 27.5523 53 27C53 26.4477 53.8954 26 55 26C56.1046 26 57 26.4477 57 27Z" fill="#C18752"/>
<path d="M58 20.5C58 20.7761 57.5523 21 57 21C56.4477 21 56 20.7761 56 20.5C56 20.2239 56.4477 20 57 20C57.5523 20 58 20.2239 58 20.5Z" fill="#C18752"/>
<path d="M60 24.5C60 24.7761 59.5523 25 59 25C58.4477 25 58 24.7761 58 24.5C58 24.2239 58.4477 24 59 24C59.5523 24 60 24.2239 60 24.5Z" fill="#C18752"/>
<path d="M55 30.5C55 30.7761 54.5523 31 54 31C53.4477 31 53 30.7761 53 30.5C53 30.2239 53.4477 30 54 30C54.5523 30 55 30.2239 55 30.5Z" fill="#C18752"/>
<path d="M61 35.5C61 35.7761 60.5523 36 60 36C59.4477 36 59 35.7761 59 35.5C59 35.2239 59.4477 35 60 35C60.5523 35 61 35.2239 61 35.5Z" fill="#C18752"/>
<path d="M56 34.5C56 34.7761 55.5523 35 55 35C54.4477 35 54 34.7761 54 34.5C54 34.2239 54.4477 34 55 34C55.5523 34 56 34.2239 56 34.5Z" fill="#C18752"/>
<path d="M63 43C63 43.5523 62.1046 44 61 44C59.8954 44 59 43.5523 59 43C59 42.4477 59.8954 42 61 42C62.1046 42 63 42.4477 63 43Z" fill="#C18752"/>
<path d="M64 73.5C64 74.3284 63.3284 75 62.5 75C61.6716 75 61 74.3284 61 73.5C61 72.6716 61.6716 72 62.5 72C63.3284 72 64 72.6716 64 73.5Z" fill="#FFCEA2"/>
<path d="M67 71C67 71.5523 66.5523 72 66 72C65.4477 72 65 71.5523 65 71C65 70.4477 65.4477 70 66 70C66.5523 70 67 70.4477 67 71Z" fill="#FFCEA2"/>
<path d="M58 74C58 74.5523 58.4477 75 59 75C59.5523 75 60 74.5523 60 74C60 73.4477 59.5523 73 59 73C58.4477 73 58 73.4477 58 74Z" fill="#FFCEA2"/>
<path d="M62 69C62 69.5523 62.4477 70 63 70C63.5523 70 64 69.5523 64 69C64 68.4477 63.5523 68 63 68C62.4477 68 62 68.4477 62 69Z" fill="#FFCEA2"/>
<path d="M58 70.5C58 71.3284 58.6716 72 59.5 72C60.3284 72 61 71.3284 61 70.5C61 69.6716 60.3284 69 59.5 69C58.6716 69 58 69.6716 58 70.5Z" fill="#FFCEA2"/>
<path d="M53 73C53 73.5523 53.4477 74 54 74C54.5523 74 55 73.5523 55 73C55 72.4477 54.5523 72 54 72C53.4477 72 53 72.4477 53 73Z" fill="#FFCEA2"/>
<path d="M65 66C65 66.5523 65.4477 67 66 67C66.5523 67 67 66.5523 67 66C67 65.4477 66.5523 65 66 65C65.4477 65 65 65.4477 65 66Z" fill="#FFCEA2"/>
</svg>
