<svg width="96" height="96" viewBox="0 0 96 96" fill="none" xmlns="http://www.w3.org/2000/svg">
<path d="M22 26L22 70L40 88L56 88L74 70L74 26L56 8L40 8L22 26Z" fill="#E3E73C"/>
<path fill-rule="evenodd" clip-rule="evenodd" d="M20.5858 24.5858C20.2107 24.9609 20 25.4696 20 26L20 70C20 70.5304 20.2107 71.0391 20.5858 71.4142L38.5858 89.4142C38.9609 89.7893 39.4696 90 40 90L56 90C56.5304 90 57.0391 89.7893 57.4142 89.4142L75.4142 71.4142C75.7893 71.0391 76 70.5304 76 70L76 26C76 25.4696 75.7893 24.9609 75.4142 24.5858L57.4142 6.58579C57.0391 6.21072 56.5304 6 56 6L40 6C39.4696 6 38.9609 6.21072 38.5858 6.58579L20.5858 24.5858ZM40 8L22 26L22 70L40 88L56 88L74 70L74 26L56 8L40 8Z" fill="#384B00"/>
<path d="M22 70L22 26L37 31L37 65L22 70Z" fill="#DAEE8B"/>
<path d="M40 8L22 26L37 31L48 18L56 8L40 8Z" fill="#FFF9C1"/>
<path d="M59 65L48 78L40 88L56 88L74 70L74 26L56 8L48 18L59 31L59 65Z" fill="#AFD02B"/>
<path d="M74 26L74 70L59 65L59 31L74 26Z" fill="#63C038"/>
<path d="M72 36C72 37.1046 71.1046 38 70 38C68.8954 38 68 37.1046 68 36C68 34.8954 68.8954 34 70 34C71.1046 34 72 34.8954 72 36Z" fill="#73D346"/>
<path d="M69 44.5C69 45.3284 68.3284 46 67.5 46C66.6716 46 66 45.3284 66 44.5C66 43.6716 66.6716 43 67.5 43C68.3284 43 69 43.6716 69 44.5Z" fill="#73D346"/>
<path d="M72 42C72 42.5523 71.5523 43 71 43C70.4477 43 70 42.5523 70 42C70 41.4477 70.4477 41 71 41C71.5523 41 72 41.4477 72 42Z" fill="#73D346"/>
<path d="M67 39C67 39.5523 66.5523 40 66 40C65.4477 40 65 39.5523 65 39C65 38.4477 65.4477 38 66 38C66.5523 38 67 38.4477 67 39Z" fill="#73D346"/>
<path d="M72 30C72 30.5523 71.5523 31 71 31C70.4477 31 70 30.5523 70 30C70 29.4477 70.4477 29 71 29C71.5523 29 72 29.4477 72 30Z" fill="#73D346"/>
<path d="M72 54C72 54.5523 71.5523 55 71 55C70.4477 55 70 54.5523 70 54C70 53.4477 70.4477 53 71 53C71.5523 53 72 53.4477 72 54Z" fill="#73D346"/>
<path d="M72 49C72 49.5523 71.5523 50 71 50C70.4477 50 70 49.5523 70 49C70 48.4477 70.4477 48 71 48C71.5523 48 72 48.4477 72 49Z" fill="#73D346"/>
<path d="M37 30.9999L37 64.9999L48 77.9999L59 65.0468L59 30.9999L48 17.9999L37 30.9999Z" fill="#D1FA2D"/>
<path d="M37 65L37 31L48 18L59 31L37 65Z" fill="#E4FF76"/>
<path fill-rule="evenodd" clip-rule="evenodd" d="M48.6332 20.2261C49.0607 20.5758 49.1237 21.2058 48.774 21.6333L40 32.357V53C40 53.5523 39.5523 54 39 54C38.4477 54 38 53.5523 38 53V32C38 31.7692 38.0799 31.5455 38.226 31.3668L47.226 20.3668C47.5758 19.9393 48.2058 19.8763 48.6332 20.2261Z" fill="#F5FFCE"/>
<path fill-rule="evenodd" clip-rule="evenodd" d="M24 28C24.5523 28 25 28.4477 25 29V67C25 67.5523 24.5523 68 24 68C23.4477 68 23 67.5523 23 67V29C23 28.4477 23.4477 28 24 28Z" fill="#DFF8AA"/>
<path fill-rule="evenodd" clip-rule="evenodd" d="M41.7071 9.29289C42.0976 9.68342 42.0976 10.3166 41.7071 10.7071L26.7071 25.7071C26.3166 26.0976 25.6834 26.0976 25.2929 25.7071C24.9024 25.3166 24.9024 24.6834 25.2929 24.2929L40.2929 9.29289C40.6834 8.90237 41.3166 8.90237 41.7071 9.29289Z" fill="#FDFFE2"/>
<path d="M68 72.5C68 73.3284 67.3284 74 66.5 74C65.6716 74 65 73.3284 65 72.5C65 71.6716 65.6716 71 66.5 71C67.3284 71 68 71.6716 68 72.5Z" fill="#99BC0D"/>
<path d="M58 82.5C58 83.3284 57.3284 84 56.5 84C55.6716 84 55 83.3284 55 82.5C55 81.6716 55.6716 81 56.5 81C57.3284 81 58 81.6716 58 82.5Z" fill="#99BC0D"/>
<path d="M62 78.5C62 79.3284 61.3284 80 60.5 80C59.6716 80 59 79.3284 59 78.5C59 77.6716 59.6716 77 60.5 77C61.3284 77 62 77.6716 62 78.5Z" fill="#99BC0D"/>
<path d="M57 76C57 76.5523 56.5523 77 56 77C55.4477 77 55 76.5523 55 76C55 75.4477 55.4477 75 56 75C56.5523 75 57 75.4477 57 76Z" fill="#99BC0D"/>
<path d="M64 76C64 76.5523 63.5523 77 63 77C62.4477 77 62 76.5523 62 76C62 75.4477 62.4477 75 63 75C63.5523 75 64 75.4477 64 76Z" fill="#99BC0D"/>
<path d="M62 72C62 73.1046 61.1046 74 60 74C58.8954 74 58 73.1046 58 72C58 70.8954 58.8954 70 60 70C61.1046 70 62 70.8954 62 72Z" fill="#99BC0D"/>
</svg>
