<svg width="96" height="96" viewBox="0 0 96 96" fill="none" xmlns="http://www.w3.org/2000/svg">
<path d="M12 48L48 84L84 48L48 12L12 48Z" fill="#FF6480"/>
<path fill-rule="evenodd" clip-rule="evenodd" d="M10.5858 46.5858C9.80474 47.3668 9.80474 48.6332 10.5858 49.4142L46.5858 85.4142C47.3668 86.1953 48.6332 86.1953 49.4142 85.4142L85.4142 49.4142C85.7893 49.0391 86 48.5304 86 48C86 47.4696 85.7893 46.9609 85.4142 46.5858L49.4142 10.5858C49.0391 10.2107 48.5304 10 48 10C47.4696 10 46.9608 10.2107 46.5858 10.5858L10.5858 46.5858ZM12 48L48 84L84 48L48 12L12 48Z" fill="#60050F"/>
<path d="M59 57C59 57.5523 58.5523 58 58 58C57.4477 58 57 57.5523 57 57C57 56.4477 57.4477 56 58 56C58.5523 56 59 56.4477 59 57Z" fill="#D15151"/>
<path d="M59 61C59 61.5523 58.5523 62 58 62C57.4477 62 57 61.5523 57 61C57 60.4477 57.4477 60 58 60C58.5523 60 59 60.4477 59 61Z" fill="#D15151"/>
<path d="M55 65C55 65.5523 54.5523 66 54 66C53.4477 66 53 65.5523 53 65C53 64.4477 53.4477 64 54 64C54.5523 64 55 64.4477 55 65Z" fill="#D15151"/>
<path d="M52 69C52 69.5523 51.5523 70 51 70C50.4477 70 50 69.5523 50 69C50 68.4477 50.4477 68 51 68C51.5523 68 52 68.4477 52 69Z" fill="#D15151"/>
<path d="M54 54C54 54.5523 53.5523 55 53 55C52.4477 55 52 54.5523 52 54C52 53.4477 52.4477 53 53 53C53.5523 53 54 53.4477 54 54Z" fill="#D15151"/>
<path d="M64 51C64 51.5523 63.5523 52 63 52C62.4477 52 62 51.5523 62 51C62 50.4477 62.4477 50 63 50C63.5523 50 64 50.4477 64 51Z" fill="#D15151"/>
<path d="M59 51.5C59 52.3284 58.3284 53 57.5 53C56.6716 53 56 52.3284 56 51.5C56 50.6716 56.6716 50 57.5 50C58.3284 50 59 50.6716 59 51.5Z" fill="#D15151"/>
<path d="M55 60.5C55 61.3284 54.3284 62 53.5 62C52.6716 62 52 61.3284 52 60.5C52 59.6716 52.6716 59 53.5 59C54.3284 59 55 59.6716 55 60.5Z" fill="#D15151"/>
<path d="M12 48L48 12L84 48L12 48Z" fill="#FF8298"/>
<path fill-rule="evenodd" clip-rule="evenodd" d="M47.922 16.0934C48.4227 16.3265 48.6397 16.9213 48.4066 17.422L34.9066 46.422C34.6735 46.9227 34.0787 47.1397 33.578 46.9066C33.0773 46.6735 32.8603 46.0787 33.0934 45.578L46.5934 16.578C46.8265 16.0773 47.4213 15.8603 47.922 16.0934Z" fill="#FFADBC"/>
<path d="M30 48L48 84L12 48L48 12L30 48Z" fill="#EE8BBB"/>
<path d="M20 48L48 84L12 48L48 12L20 48Z" fill="#FF9BAD"/>
<path d="M30 48L48 12L12 48L30 48Z" fill="#FFABD3"/>
<path d="M20 48L48 12L12 48L20 48Z" fill="#FFC6D0"/>
<path d="M66 48L48 84L84 48L48 12L66 48Z" fill="#AC2F6B"/>
<path d="M66 48L48 12L84 48L66 48Z" fill="#C64683"/>
<path d="M76 48L48 84L84 48L48 12L76 48Z" fill="#D74E67"/>
<path d="M76 48L48 12L84 48L76 48Z" fill="#EB5D76"/>
<path fill-rule="evenodd" clip-rule="evenodd" d="M31.6823 30.2689C32.0861 30.6458 32.1079 31.2786 31.7311 31.6823L17.7311 46.6823C17.3542 47.0861 16.7214 47.1079 16.3177 46.7311C15.9139 46.3542 15.8921 45.7214 16.2689 45.3177L30.2689 30.3177C30.6458 29.9139 31.2786 29.8921 31.6823 30.2689Z" fill="#FFEFF2"/>
</svg>
