<svg width="96" height="96" viewBox="0 0 96 96" fill="none" xmlns="http://www.w3.org/2000/svg">
<path d="M78.9436 56.0233C74.3694 73.0942 57.2551 83.3407 40.7177 78.9095C24.1802 74.4783 14.482 57.0474 19.0562 39.9765C23.6303 22.9056 40.7446 12.6591 57.2821 17.0903C73.8195 21.5215 83.5177 38.9524 78.9436 56.0233Z" fill="#A56402"/>
<path fill-rule="evenodd" clip-rule="evenodd" d="M80.8756 56.541C76.0312 74.6205 57.8619 85.5739 40.2002 80.8414C22.5384 76.109 12.2801 57.5385 17.1245 39.4589C21.9689 21.3793 40.1381 10.426 57.7999 15.1585C75.4616 19.8909 85.72 38.4614 80.8756 56.541ZM40.7178 78.9096C57.2553 83.3408 74.3696 73.0942 78.9437 56.0233C83.5179 38.9524 73.8197 21.5215 57.2822 17.0903C40.7448 12.6591 23.6305 22.9056 19.0563 39.9765C14.4822 57.0475 24.1804 74.4784 40.7178 78.9096Z" fill="#5B3303"/>
<path d="M76.9436 54.0233C72.3694 71.0942 55.2551 81.3407 38.7177 76.9095C22.1802 72.4783 12.482 55.0474 17.0562 37.9765C21.6303 20.9056 38.7446 10.6591 55.2821 15.0903C71.8195 19.5215 81.5177 36.9524 76.9436 54.0233Z" fill="#FFB423"/>
<path fill-rule="evenodd" clip-rule="evenodd" d="M78.8756 54.541C74.0312 72.6205 55.8619 83.5739 38.2002 78.8414C20.5384 74.109 10.2801 55.5385 15.1245 37.4589C19.9689 19.3793 38.1381 8.42601 55.7999 13.1585C73.4616 17.8909 83.72 36.4614 78.8756 54.541ZM38.7178 76.9096C55.2553 81.3408 72.3696 71.0942 76.9437 54.0233C81.5179 36.9524 71.8197 19.5215 55.2822 15.0903C38.7448 10.6591 21.6305 20.9056 17.0563 37.9765C12.4822 55.0475 22.1804 72.4784 38.7178 76.9096Z" fill="#5B3303"/>
<path d="M71.1481 52.4704C67.4316 66.3405 53.6073 74.6876 40.2706 71.114C26.934 67.5405 19.1353 53.3996 22.8518 39.5295C26.5682 25.6594 40.3925 17.3123 53.7292 20.8859C67.0659 24.4594 74.8645 38.6003 71.1481 52.4704Z" fill="#FFCF23"/>
<path fill-rule="evenodd" clip-rule="evenodd" d="M73.0801 52.988C69.097 67.853 54.2274 76.9242 39.7531 73.0458C25.2788 69.1675 16.937 53.8767 20.9201 39.0118C24.9031 24.1469 39.7727 15.0756 54.247 18.954C68.7213 22.8324 77.0631 38.1231 73.0801 52.988ZM40.2708 71.114C53.6074 74.6875 67.4317 66.3405 71.1482 52.4704C74.8647 38.6003 67.066 24.4594 53.7294 20.8858C40.3927 17.3123 26.5684 25.6593 22.8519 39.5294C19.1354 53.3996 26.9341 67.5404 40.2708 71.114Z" fill="#DF8D12"/>
<path fill-rule="evenodd" clip-rule="evenodd" d="M65.5639 28.1935C62.8164 25.7449 59.4934 23.8945 55.7292 22.8859C42.3925 19.3123 28.5682 27.6593 24.8517 41.5295C22.4535 50.4798 24.8503 59.5429 30.4359 65.8064C23.449 59.5797 20.1842 49.4848 22.8517 39.5295C26.5682 25.6593 40.3925 17.3123 53.7292 20.8859C58.4598 22.1534 62.4936 24.7505 65.5639 28.1935Z" fill="#FFDD65"/>
<path d="M64.583 57.1319C64.9085 57.8455 64.5939 58.6878 63.8803 59.0133C63.1668 59.3387 62.3245 59.0241 61.999 58.3106C61.6735 57.597 61.9881 56.7547 62.7017 56.4292C63.4152 56.1038 64.2576 56.4184 64.583 57.1319Z" fill="#EEBE14"/>
<path d="M70.3028 51.4013C70.6282 52.1149 70.3136 52.9572 69.6001 53.2827C68.8865 53.6082 68.0442 53.2935 67.7187 52.58C67.3932 51.8664 67.7079 51.0241 68.4214 50.6986C69.135 50.3732 69.9773 50.6878 70.3028 51.4013Z" fill="#EEBE14"/>
<path d="M63.3784 50.8248C63.7039 51.5384 63.3893 52.3807 62.6757 52.7061C61.9622 53.0316 61.1199 52.717 60.7944 52.0034C60.4689 51.2899 60.7835 50.4476 61.4971 50.1221C62.2107 49.7966 63.053 50.1112 63.3784 50.8248Z" fill="#EEBE14"/>
<path d="M66.2833 52.9277C66.5099 53.4246 66.2908 54.0112 65.7939 54.2379C65.2969 54.4645 64.7103 54.2454 64.4837 53.7485C64.257 53.2515 64.4761 52.6649 64.973 52.4383C65.47 52.2116 66.0566 52.4307 66.2833 52.9277Z" fill="#EEBE14"/>
<path d="M65.8985 48.5885C66.1252 49.0854 65.9061 49.672 65.4091 49.8987C64.9122 50.1254 64.3256 49.9063 64.0989 49.4093C63.8722 48.9124 64.0913 48.3258 64.5883 48.0991C65.0852 47.8724 65.6718 48.0915 65.8985 48.5885Z" fill="#EEBE14"/>
<path d="M70.4156 47.615C70.6423 48.1119 70.4231 48.6985 69.9262 48.9252C69.4293 49.1519 68.8427 48.9328 68.616 48.4358C68.3893 47.9389 68.6084 47.3523 69.1054 47.1256C69.6023 46.8989 70.1889 47.118 70.4156 47.615Z" fill="#EEBE14"/>
<path d="M70.9991 41.4401C71.2257 41.937 71.0066 42.5237 70.5097 42.7503C70.0128 42.977 69.4262 42.7579 69.1995 42.2609C68.9728 41.764 69.1919 41.1774 69.6889 40.9507C70.1858 40.7241 70.7724 40.9432 70.9991 41.4401Z" fill="#EEBE14"/>
<path d="M67.938 45.4839C68.1647 45.9809 67.9456 46.5675 67.4487 46.7941C66.9517 47.0208 66.3651 46.8017 66.1384 46.3048C65.9118 45.8078 66.1309 45.2212 66.6278 44.9945C67.1248 44.7679 67.7114 44.987 67.938 45.4839Z" fill="#EEBE14"/>
<path d="M68.7471 55.567C68.9738 56.0639 68.7547 56.6505 68.2577 56.8772C67.7608 57.1039 67.1742 56.8848 66.9475 56.3878C66.7209 55.8909 66.94 55.3043 67.4369 55.0776C67.9339 54.8509 68.5205 55.0701 68.7471 55.567Z" fill="#EEBE14"/>
<path d="M64.2485 61.4032C64.458 61.8624 64.2555 62.4046 63.7963 62.6141C63.337 62.8236 62.7948 62.6211 62.5854 62.1618C62.3759 61.7025 62.5784 61.1604 63.0376 60.9509C63.4969 60.7414 64.0391 60.9439 64.2485 61.4032Z" fill="#EEBE14"/>
<path d="M66.4001 58.9217C66.5283 59.2027 66.4044 59.5344 66.1234 59.6626C65.8424 59.7908 65.5107 59.6669 65.3825 59.3859C65.2543 59.1049 65.3782 58.7732 65.6592 58.645C65.9402 58.5168 66.2719 58.6407 66.4001 58.9217Z" fill="#EEBE14"/>
<path d="M62.4471 54.3434C62.6214 54.7257 62.4529 55.1769 62.0706 55.3513C61.6884 55.5256 61.2371 55.3571 61.0628 54.9748C60.8884 54.5925 61.057 54.1413 61.4392 53.9669C61.8215 53.7926 62.2727 53.9611 62.4471 54.3434Z" fill="#EEBE14"/>
<path d="M68.2322 42.3395C68.4066 42.7218 68.2381 43.173 67.8558 43.3474C67.4735 43.5218 67.0223 43.3532 66.8479 42.971C66.6736 42.5887 66.8421 42.1375 67.2244 41.9631C67.6066 41.7887 68.0579 41.9573 68.2322 42.3395Z" fill="#EEBE14"/>
<path d="M70.515 45.1449C70.6893 45.5272 70.5208 45.9784 70.1385 46.1528C69.7562 46.3271 69.305 46.1586 69.1306 45.7763C68.9563 45.3941 69.1248 44.9428 69.5071 44.7685C69.8894 44.5941 70.3406 44.7626 70.515 45.1449Z" fill="#EEBE14"/>
<path d="M61.4725 59.7213C61.6468 60.1036 61.4783 60.5548 61.096 60.7292C60.7138 60.9035 60.2625 60.735 60.0882 60.3527C59.9138 59.9705 60.0823 59.5192 60.4646 59.3449C60.8469 59.1705 61.2981 59.3391 61.4725 59.7213Z" fill="#EEBE14"/>
<path d="M61.0418 64.1545C61.2162 64.5368 61.0476 64.988 60.6654 65.1623C60.2831 65.3367 59.8319 65.1682 59.6575 64.7859C59.4831 64.4036 59.6517 63.9524 60.0339 63.778C60.4162 63.6037 60.8674 63.7722 61.0418 64.1545Z" fill="#EEBE14"/>
<path fill-rule="evenodd" clip-rule="evenodd" d="M42.7977 30.0378C45.5411 29.0431 48.5394 29.2183 51.0042 29.7456C53.3982 30.2578 55.4247 31.0024 57.1655 32.1712C58.9351 33.3593 60.16 34.8183 61.17 36.3781C62.3708 38.2325 61.8409 40.7091 59.9866 41.9098C58.1323 43.1106 55.6557 42.5807 54.4549 40.7264C53.8316 39.7637 53.3118 39.2197 52.7062 38.8131C52.0719 38.3872 51.0925 37.9455 49.3306 37.5686C47.6395 37.2068 46.3151 37.2721 45.5247 37.5587C45.1764 37.6849 44.9828 37.8338 44.859 37.9733C44.74 38.1075 44.5554 38.3789 44.4333 38.9496C44.3112 39.5203 44.3686 39.8435 44.4223 40.0147C44.4781 40.1926 44.5939 40.4076 44.8601 40.6653C45.464 41.2502 46.6458 41.8517 48.3369 42.2135C50.8017 42.7408 53.6092 43.8077 55.7055 45.8377C58.008 48.0675 59.1894 51.2362 58.3898 54.9739C57.5902 58.7117 55.2156 61.1196 52.2024 62.2121C49.459 63.2068 46.4608 63.0316 43.9959 62.5043C38.8567 61.4048 35.388 58.6328 33.7082 55.6709C32.6184 53.7492 33.2928 51.308 35.2144 50.2182C37.1361 49.1284 39.5773 49.8028 40.6671 51.7244C41.0911 52.4722 42.4969 54.0026 45.6695 54.6813C47.3607 55.0431 48.6851 54.9778 49.4754 54.6912C49.8237 54.565 50.0174 54.4161 50.1411 54.2766C50.2602 54.1424 50.4447 53.871 50.5668 53.3003C50.6889 52.7296 50.6315 52.4065 50.5778 52.2352C50.522 52.0573 50.4062 51.8423 50.1401 51.5846C49.5361 50.9997 48.3544 50.3982 46.6633 50.0364C44.1984 49.5091 41.3909 48.4423 39.2947 46.4122C36.9922 44.1824 35.8107 41.0137 36.6103 37.276C37.41 33.5382 39.7845 31.1303 42.7977 30.0378Z" fill="#C37808"/>
<path fill-rule="evenodd" clip-rule="evenodd" d="M52.3378 23.5117C54.498 23.9738 55.8746 26.0997 55.4124 28.26L54.1572 34.1272C53.6951 36.2875 51.5692 37.664 49.4089 37.2019C47.2487 36.7397 45.8721 34.6138 46.3342 32.4536L47.5895 26.5864C48.0516 24.4261 50.1775 23.0495 52.3378 23.5117Z" fill="#C37808"/>
<path fill-rule="evenodd" clip-rule="evenodd" d="M45.6693 54.6814C47.8296 55.1435 49.2061 57.2694 48.744 59.4297L47.4888 65.2969C47.0266 67.4571 44.9007 68.8337 42.7405 68.3716C40.5802 67.9094 39.2036 65.7835 39.6658 63.6233L40.921 57.756C41.3832 55.5958 43.509 54.2192 45.6693 54.6814Z" fill="#C37808"/>
<path fill-rule="evenodd" clip-rule="evenodd" d="M43.6496 32.3881C45.7827 31.6147 48.2578 31.7147 50.4809 32.1903C52.6774 32.6602 54.3766 33.3102 55.7717 34.2468C57.1775 35.1907 58.182 36.3637 59.0712 37.737C59.5215 38.4324 59.3228 39.3611 58.6275 39.8114C57.9321 40.2617 57.0034 40.063 56.5531 39.3676C55.8089 38.2183 55.0688 37.3883 54.0995 36.7375C53.1193 36.0795 51.8127 35.5431 49.8533 35.1239C47.9204 34.7104 46.0729 34.7006 44.6722 35.2084C43.3727 35.6796 42.3761 36.6139 41.9883 38.4266C41.6005 40.2393 42.1276 41.4996 43.1206 42.4612C44.1909 43.4977 45.8807 44.2446 47.8136 44.6582C50.0366 45.1338 52.3361 46.0552 53.966 47.6336C55.6732 49.287 56.5573 51.5882 55.9448 54.4509C55.3324 57.3137 53.5842 59.0518 51.3499 59.8619C49.2168 60.6353 46.7417 60.5352 44.5186 60.0597C39.9939 59.0917 37.1699 56.7076 35.8826 54.4376C35.4739 53.717 35.7268 52.8015 36.4474 52.3929C37.168 51.9842 38.0835 52.2371 38.4921 52.9577C39.3086 54.3974 41.359 56.3158 45.1462 57.126C47.0791 57.5396 48.9266 57.5494 50.3273 57.0415C51.6268 56.5704 52.6234 55.636 53.0112 53.8233C53.399 52.0106 52.8719 50.7503 51.8789 49.7887C50.8087 48.7522 49.1189 48.0053 47.186 47.5918C44.9629 47.1162 42.6634 46.1948 41.0335 44.6163C39.3263 42.963 38.4423 40.6618 39.0547 37.799C39.6671 34.9363 41.4153 33.1982 43.6496 32.3881Z" fill="#FFB423"/>
<path fill-rule="evenodd" clip-rule="evenodd" d="M51.815 25.9563C52.625 26.1296 53.1413 26.9268 52.968 27.7369L51.7127 33.6042C51.5394 34.4143 50.7422 34.9305 49.9321 34.7572C49.122 34.5839 48.6058 33.7867 48.7791 32.9766L50.0343 27.1093C50.2076 26.2992 51.0049 25.783 51.815 25.9563Z" fill="#FFB423"/>
<path fill-rule="evenodd" clip-rule="evenodd" d="M45.1465 57.126C45.9566 57.2993 46.4728 58.0965 46.2995 58.9066L45.0443 64.7738C44.871 65.5839 44.0738 66.1002 43.2637 65.9268C42.4536 65.7535 41.9374 64.9563 42.1107 64.1462L43.3659 58.279C43.5392 57.4689 44.3364 56.9527 45.1465 57.126Z" fill="#FFB423"/>
<path fill-rule="evenodd" clip-rule="evenodd" d="M19.539 36.4367C19.0217 36.2434 18.759 35.6673 18.9523 35.1499C22.404 25.9129 30.1339 18.7641 39.7342 16.1145C40.2666 15.9675 40.8173 16.28 40.9642 16.8124C41.1111 17.3448 40.7987 17.8955 40.2663 18.0424C31.2888 20.5202 24.0548 27.209 20.8258 35.85C20.6325 36.3674 20.0564 36.63 19.539 36.4367Z" fill="#FFCF72"/>
<path fill-rule="evenodd" clip-rule="evenodd" d="M71.9158 61.1545C72.3827 61.4495 72.5222 62.0671 72.2272 62.534C69.888 66.2371 66.7864 69.41 63.1426 71.8327C62.6827 72.1385 62.062 72.0135 61.7562 71.5536C61.4505 71.0937 61.5754 70.473 62.0353 70.1672C65.4449 67.9002 68.3476 64.9307 70.5363 61.4659C70.8313 60.999 71.4489 60.8595 71.9158 61.1545Z" fill="#FFCF72"/>
<path fill-rule="evenodd" clip-rule="evenodd" d="M30.5548 22.832C30.5546 22.8321 30.555 22.8319 30.5548 22.832L30.0001 21.9999C30.5548 22.832 30.5547 22.8321 30.5548 22.832L30.5512 22.8344L30.5309 22.8482C30.512 22.8612 30.4825 22.8816 30.4432 22.9092C30.3648 22.9645 30.2479 23.0485 30.1001 23.1593C29.8043 23.3812 29.3868 23.7091 28.9086 24.1275C27.9467 24.9692 26.7661 26.1537 25.8322 27.5546C25.5258 28.0142 24.9049 28.1383 24.4454 27.832C23.9859 27.5256 23.8617 26.9048 24.1681 26.4452C25.2341 24.8462 26.5535 23.5307 27.5916 22.6224C28.1134 22.1658 28.5709 21.8062 28.9001 21.5593C29.0649 21.4357 29.1979 21.3401 29.2913 21.2743C29.3381 21.2413 29.3749 21.2158 29.4009 21.198L29.4317 21.1771L29.4407 21.171L29.4436 21.1691L29.4446 21.1684C29.4448 21.1683 29.4454 21.1679 30.0001 21.9999L29.4446 21.1684C29.9042 20.862 30.5258 20.9857 30.8322 21.4452C31.1384 21.9046 31.0138 22.5255 30.5548 22.832Z" fill="#FFE9AF"/>
<path fill-rule="evenodd" clip-rule="evenodd" d="M34.5548 27.832C34.5546 27.8321 34.555 27.8319 34.5548 27.832L34.0001 26.9999C34.5548 27.832 34.5547 27.8321 34.5548 27.832L34.5512 27.8344L34.5309 27.8482C34.512 27.8612 34.4825 27.8816 34.4432 27.9092C34.3648 27.9645 34.2479 28.0485 34.1001 28.1593C33.8043 28.3812 33.3868 28.7091 32.9086 29.1275C31.9467 29.9692 30.7661 31.1537 29.8322 32.5546C29.5258 33.0142 28.9049 33.1383 28.4454 32.832C27.9859 32.5256 27.8617 31.9048 28.1681 31.4452C29.2341 29.8462 30.5535 28.5307 31.5916 27.6224C32.1134 27.1658 32.5709 26.8062 32.9001 26.5593C33.0649 26.4357 33.1979 26.3401 33.2913 26.2743C33.3381 26.2413 33.3749 26.2158 33.4009 26.198L33.4317 26.1771L33.4407 26.171L33.4436 26.1691L33.4446 26.1684C33.4448 26.1683 33.4454 26.1679 34.0001 26.9999L33.4446 26.1684C33.9042 25.862 34.5258 25.9857 34.8322 26.4452C35.1384 26.9046 35.0138 27.5255 34.5548 27.832Z" fill="white"/>
</svg>
