<svg width="96" height="96" viewBox="0 0 96 96" fill="none" xmlns="http://www.w3.org/2000/svg">
<path d="M78.9436 56.0234C74.3694 73.0943 57.2551 83.3408 40.7177 78.9096C24.1802 74.4784 14.482 57.0475 19.0562 39.9766C23.6303 22.9057 40.7446 12.6591 57.2821 17.0903C73.8195 21.5215 83.5177 38.9524 78.9436 56.0234Z" fill="#A35A38"/>
<path fill-rule="evenodd" clip-rule="evenodd" d="M80.8756 56.541C76.0312 74.6206 57.8619 85.5739 40.2002 80.8415C22.5384 76.109 12.2801 57.5385 17.1245 39.459C21.9689 21.3794 40.1381 10.4261 57.7999 15.1585C75.4616 19.891 85.72 38.4615 80.8756 56.541ZM40.7178 78.9096C57.2553 83.3408 74.3696 73.0943 78.9437 56.0234C83.5179 38.9525 73.8197 21.5216 57.2822 17.0904C40.7448 12.6592 23.6305 22.9057 19.0563 39.9766C14.4822 57.0475 24.1804 74.4784 40.7178 78.9096Z" fill="#672001"/>
<path d="M76.9436 54.0234C72.3694 71.0943 55.2551 81.3408 38.7177 76.9096C22.1802 72.4784 12.482 55.0475 17.0562 37.9766C21.6303 20.9057 38.7446 10.6591 55.2821 15.0903C71.8195 19.5215 81.5177 36.9524 76.9436 54.0234Z" fill="#C27C3B"/>
<path fill-rule="evenodd" clip-rule="evenodd" d="M78.8756 54.541C74.0312 72.6206 55.8619 83.5739 38.2002 78.8415C20.5384 74.109 10.2801 55.5385 15.1245 37.459C19.9689 19.3794 38.1381 8.42607 55.7999 13.1585C73.4616 17.891 83.72 36.4615 78.8756 54.541ZM38.7178 76.9096C55.2553 81.3408 72.3696 71.0943 76.9437 54.0234C81.5179 36.9525 71.8197 19.5216 55.2822 15.0904C38.7448 10.6592 21.6305 20.9057 17.0563 37.9766C12.4822 55.0475 22.1804 72.4784 38.7178 76.9096Z" fill="#672001"/>
<path d="M71.1481 52.4705C67.4316 66.3406 53.6073 74.6876 40.2706 71.1141C26.934 67.5405 19.1353 53.3997 22.8518 39.5295C26.5682 25.6594 40.3925 17.3124 53.7292 20.8859C67.0659 24.4595 74.8645 38.6004 71.1481 52.4705Z" fill="#F6B981"/>
<path fill-rule="evenodd" clip-rule="evenodd" d="M73.0801 52.9881C69.097 67.853 54.2274 76.9243 39.7531 73.0459C25.2788 69.1675 16.937 53.8768 20.9201 39.0119C24.9031 24.1469 39.7727 15.0757 54.247 18.9541C68.7213 22.8324 77.0631 38.1232 73.0801 52.9881ZM40.2708 71.1141C53.6074 74.6876 67.4317 66.3406 71.1482 52.4705C74.8647 38.6003 67.066 24.4595 53.7294 20.8859C40.3927 17.3124 26.5684 25.6594 22.8519 39.5295C19.1354 53.3996 26.9341 67.5405 40.2708 71.1141Z" fill="#A35A38"/>
<path fill-rule="evenodd" clip-rule="evenodd" d="M65.5639 28.1935C62.8164 25.745 59.4934 23.8945 55.7292 22.8859C42.3925 19.3124 28.5682 27.6594 24.8517 41.5295C22.4535 50.4798 24.8503 59.5429 30.4359 65.8065C23.449 59.5797 20.1842 49.4849 22.8517 39.5295C26.5682 25.6594 40.3925 17.3124 53.7292 20.8859C58.4598 22.1535 62.4936 24.7506 65.5639 28.1935Z" fill="#FCCA9B"/>
<path d="M64.583 57.132C64.9085 57.8456 64.5939 58.6879 63.8803 59.0133C63.1668 59.3388 62.3245 59.0242 61.999 58.3106C61.6735 57.5971 61.9881 56.7548 62.7017 56.4293C63.4152 56.1038 64.2576 56.4184 64.583 57.132Z" fill="#E3A265"/>
<path d="M70.3028 51.4014C70.6282 52.115 70.3136 52.9573 69.6001 53.2827C68.8865 53.6082 68.0442 53.2936 67.7187 52.58C67.3932 51.8665 67.7079 51.0242 68.4214 50.6987C69.135 50.3732 69.9773 50.6878 70.3028 51.4014Z" fill="#E3A265"/>
<path d="M63.3784 50.8249C63.7039 51.5384 63.3893 52.3807 62.6757 52.7062C61.9622 53.0317 61.1199 52.7171 60.7944 52.0035C60.4689 51.2899 60.7835 50.4476 61.4971 50.1222C62.2107 49.7967 63.053 50.1113 63.3784 50.8249Z" fill="#E3A265"/>
<path d="M66.2833 52.9277C66.5099 53.4247 66.2908 54.0113 65.7939 54.2379C65.2969 54.4646 64.7103 54.2455 64.4837 53.7486C64.257 53.2516 64.4761 52.665 64.973 52.4383C65.47 52.2117 66.0566 52.4308 66.2833 52.9277Z" fill="#E3A265"/>
<path d="M65.8985 48.5885C66.1252 49.0855 65.9061 49.6721 65.4091 49.8988C64.9122 50.1254 64.3256 49.9063 64.0989 49.4094C63.8722 48.9124 64.0913 48.3258 64.5883 48.0992C65.0852 47.8725 65.6718 48.0916 65.8985 48.5885Z" fill="#E3A265"/>
<path d="M70.4156 47.615C70.6423 48.112 70.4231 48.6986 69.9262 48.9252C69.4293 49.1519 68.8427 48.9328 68.616 48.4359C68.3893 47.9389 68.6084 47.3523 69.1054 47.1257C69.6023 46.899 70.1889 47.1181 70.4156 47.615Z" fill="#E3A265"/>
<path d="M70.9991 41.4402C71.2257 41.9371 71.0066 42.5237 70.5097 42.7504C70.0128 42.9771 69.4262 42.7579 69.1995 42.261C68.9728 41.7641 69.1919 41.1775 69.6889 40.9508C70.1858 40.7241 70.7724 40.9432 70.9991 41.4402Z" fill="#E3A265"/>
<path d="M67.938 45.484C68.1647 45.9809 67.9456 46.5675 67.4487 46.7942C66.9517 47.0209 66.3651 46.8018 66.1384 46.3048C65.9118 45.8079 66.1309 45.2213 66.6278 44.9946C67.1248 44.7679 67.7114 44.987 67.938 45.484Z" fill="#E3A265"/>
<path d="M68.7471 55.5671C68.9738 56.064 68.7547 56.6506 68.2577 56.8773C67.7608 57.1039 67.1742 56.8848 66.9475 56.3879C66.7209 55.891 66.94 55.3043 67.4369 55.0777C67.9339 54.851 68.5205 55.0701 68.7471 55.5671Z" fill="#E3A265"/>
<path d="M64.2485 61.4032C64.458 61.8625 64.2555 62.4046 63.7963 62.6141C63.337 62.8236 62.7948 62.6211 62.5854 62.1618C62.3759 61.7026 62.5784 61.1604 63.0376 60.951C63.4969 60.7415 64.0391 60.944 64.2485 61.4032Z" fill="#E3A265"/>
<path d="M66.4001 58.9218C66.5283 59.2028 66.4044 59.5345 66.1234 59.6627C65.8424 59.7909 65.5107 59.667 65.3825 59.386C65.2543 59.1049 65.3782 58.7732 65.6592 58.6451C65.9402 58.5169 66.2719 58.6408 66.4001 58.9218Z" fill="#E3A265"/>
<path d="M62.4471 54.3435C62.6214 54.7257 62.4529 55.177 62.0706 55.3513C61.6884 55.5257 61.2371 55.3571 61.0628 54.9749C60.8884 54.5926 61.057 54.1414 61.4392 53.967C61.8215 53.7926 62.2727 53.9612 62.4471 54.3435Z" fill="#E3A265"/>
<path d="M68.2322 42.3396C68.4066 42.7219 68.2381 43.1731 67.8558 43.3475C67.4735 43.5218 67.0223 43.3533 66.8479 42.971C66.6736 42.5888 66.8421 42.1375 67.2244 41.9632C67.6066 41.7888 68.0579 41.9573 68.2322 42.3396Z" fill="#E3A265"/>
<path d="M70.515 45.145C70.6893 45.5272 70.5208 45.9785 70.1385 46.1528C69.7562 46.3272 69.305 46.1586 69.1306 45.7764C68.9563 45.3941 69.1248 44.9429 69.5071 44.7685C69.8894 44.5942 70.3406 44.7627 70.515 45.145Z" fill="#E3A265"/>
<path d="M61.4725 59.7214C61.6468 60.1036 61.4783 60.5549 61.096 60.7292C60.7138 60.9036 60.2625 60.7351 60.0882 60.3528C59.9138 59.9705 60.0823 59.5193 60.4646 59.3449C60.8469 59.1706 61.2981 59.3391 61.4725 59.7214Z" fill="#E3A265"/>
<path d="M61.0418 64.1545C61.2162 64.5368 61.0476 64.988 60.6654 65.1624C60.2831 65.3368 59.8319 65.1682 59.6575 64.786C59.4831 64.4037 59.6517 63.9525 60.0339 63.7781C60.4162 63.6037 60.8674 63.7723 61.0418 64.1545Z" fill="#E3A265"/>
<path fill-rule="evenodd" clip-rule="evenodd" d="M42.7977 30.0378C45.5411 29.0431 48.5394 29.2183 51.0042 29.7457C53.3982 30.2578 55.4247 31.0025 57.1655 32.1713C58.9351 33.3593 60.16 34.8183 61.17 36.3782C62.3708 38.2325 61.8409 40.7091 59.9866 41.9099C58.1323 43.1106 55.6557 42.5808 54.4549 40.7265C53.8316 39.7638 53.3118 39.2197 52.7062 38.8131C52.0719 38.3873 51.0925 37.9456 49.3306 37.5686C47.6395 37.2068 46.3151 37.2722 45.5247 37.5587C45.1764 37.685 44.9828 37.8339 44.859 37.9733C44.74 38.1076 44.5554 38.3789 44.4333 38.9497C44.3112 39.5204 44.3686 39.8435 44.4223 40.0147C44.4781 40.1926 44.5939 40.4077 44.8601 40.6654C45.464 41.2503 46.6458 41.8517 48.3369 42.2135C50.8017 42.7408 53.6092 43.8077 55.7055 45.8378C58.008 48.0676 59.1894 51.2362 58.3898 54.974C57.5902 58.7117 55.2156 61.1196 52.2024 62.2122C49.459 63.2069 46.4608 63.0317 43.9959 62.5044C38.8567 61.4049 35.388 58.6329 33.7082 55.6709C32.6184 53.7493 33.2928 51.308 35.2144 50.2183C37.1361 49.1285 39.5773 49.8029 40.6671 51.7245C41.0911 52.4722 42.4969 54.0027 45.6695 54.6814C47.3607 55.0432 48.6851 54.9779 49.4754 54.6913C49.8237 54.565 50.0174 54.4162 50.1411 54.2767C50.2602 54.1425 50.4447 53.8711 50.5668 53.3004C50.6889 52.7296 50.6315 52.4065 50.5778 52.2353C50.522 52.0574 50.4062 51.8424 50.1401 51.5846C49.5361 50.9998 48.3544 50.3983 46.6633 50.0365C44.1984 49.5092 41.3909 48.4423 39.2947 46.4122C36.9922 44.1825 35.8107 41.0138 36.6103 37.2761C37.41 33.5383 39.7845 31.1304 42.7977 30.0378Z" fill="#A35A38"/>
<path fill-rule="evenodd" clip-rule="evenodd" d="M52.3378 23.5117C54.498 23.9739 55.8746 26.0998 55.4124 28.26L54.1572 34.1273C53.6951 36.2875 51.5692 37.6641 49.4089 37.2019C47.2487 36.7398 45.8721 34.6139 46.3342 32.4537L47.5895 26.5864C48.0516 24.4262 50.1775 23.0496 52.3378 23.5117Z" fill="#A35A38"/>
<path fill-rule="evenodd" clip-rule="evenodd" d="M45.6693 54.6814C47.8296 55.1436 49.2061 57.2695 48.744 59.4297L47.4888 65.2969C47.0266 67.4572 44.9007 68.8338 42.7405 68.3716C40.5802 67.9095 39.2036 65.7836 39.6658 63.6233L40.921 57.7561C41.3832 55.5958 43.509 54.2193 45.6693 54.6814Z" fill="#A35A38"/>
<path fill-rule="evenodd" clip-rule="evenodd" d="M43.6496 32.3881C45.7827 31.6147 48.2578 31.7148 50.4809 32.1904C52.6774 32.6603 54.3766 33.3102 55.7717 34.2469C57.1775 35.1907 58.182 36.3638 59.0712 37.7371C59.5215 38.4324 59.3228 39.3612 58.6275 39.8114C57.9321 40.2617 57.0034 40.063 56.5531 39.3677C55.8089 38.2184 55.0688 37.3884 54.0995 36.7376C53.1193 36.0795 51.8127 35.5432 49.8533 35.124C47.9204 34.7105 46.0729 34.7006 44.6722 35.2085C43.3727 35.6796 42.3761 36.614 41.9883 38.4267C41.6005 40.2394 42.1276 41.4997 43.1206 42.4613C44.1909 43.4978 45.8807 44.2447 47.8136 44.6582C50.0366 45.1338 52.3361 46.0553 53.966 47.6337C55.6732 49.287 56.5573 51.5883 55.9448 54.451C55.3324 57.3137 53.5842 59.0518 51.3499 59.8619C49.2168 60.6353 46.7417 60.5353 44.5186 60.0597C39.9939 59.0917 37.1699 56.7077 35.8826 54.4377C35.4739 53.7171 35.7268 52.8016 36.4474 52.3929C37.168 51.9843 38.0835 52.2372 38.4921 52.9578C39.3086 54.3974 41.359 56.3159 45.1462 57.1261C47.0791 57.5396 48.9266 57.5495 50.3273 57.0416C51.6268 56.5704 52.6234 55.6361 53.0112 53.8234C53.399 52.0107 52.8719 50.7504 51.8789 49.7888C50.8087 48.7523 49.1189 48.0054 47.186 47.5918C44.9629 47.1163 42.6634 46.1948 41.0335 44.6164C39.3263 42.963 38.4423 40.6618 39.0547 37.7991C39.6671 34.9363 41.4153 33.1982 43.6496 32.3881Z" fill="#E09E61"/>
<path fill-rule="evenodd" clip-rule="evenodd" d="M51.815 25.9564C52.625 26.1297 53.1413 26.9269 52.968 27.737L51.7127 33.6042C51.5394 34.4143 50.7422 34.9305 49.9321 34.7572C49.122 34.5839 48.6058 33.7867 48.7791 32.9766L50.0343 27.1094C50.2076 26.2993 51.0049 25.7831 51.815 25.9564Z" fill="#E09E61"/>
<path fill-rule="evenodd" clip-rule="evenodd" d="M45.1465 57.1261C45.9566 57.2994 46.4728 58.0966 46.2995 58.9067L45.0443 64.7739C44.871 65.584 44.0738 66.1002 43.2637 65.9269C42.4536 65.7536 41.9374 64.9564 42.1107 64.1463L43.3659 58.2791C43.5392 57.469 44.3364 56.9528 45.1465 57.1261Z" fill="#E09E61"/>
<path fill-rule="evenodd" clip-rule="evenodd" d="M19.539 36.4367C19.0217 36.2434 18.759 35.6673 18.9523 35.1499C22.404 25.9129 30.1339 18.7641 39.7342 16.1145C40.2666 15.9675 40.8173 16.28 40.9642 16.8124C41.1111 17.3448 40.7987 17.8955 40.2663 18.0424C31.2888 20.5202 24.0548 27.209 20.8258 35.85C20.6325 36.3674 20.0564 36.63 19.539 36.4367Z" fill="#E29854"/>
<path fill-rule="evenodd" clip-rule="evenodd" d="M71.9158 61.1546C72.3827 61.4495 72.5222 62.0671 72.2272 62.5341C69.888 66.2371 66.7864 69.4101 63.1426 71.8327C62.6827 72.1385 62.062 72.0136 61.7562 71.5537C61.4505 71.0938 61.5754 70.4731 62.0353 70.1673C65.4449 67.9003 68.3476 64.9308 70.5363 61.4659C70.8313 60.999 71.4489 60.8596 71.9158 61.1546Z" fill="#E29854"/>
<path fill-rule="evenodd" clip-rule="evenodd" d="M30.5548 22.832C30.5546 22.8322 30.555 22.8319 30.5548 22.832L30.0001 22C30.5548 22.832 30.5547 22.8321 30.5548 22.832L30.5512 22.8345L30.5309 22.8483C30.512 22.8612 30.4825 22.8817 30.4432 22.9093C30.3648 22.9645 30.2479 23.0486 30.1001 23.1594C29.8043 23.3812 29.3868 23.7092 28.9086 24.1276C27.9467 24.9692 26.7661 26.1538 25.8322 27.5547C25.5258 28.0142 24.9049 28.1384 24.4454 27.832C23.9859 27.5257 23.8617 26.9048 24.1681 26.4453C25.2341 24.8462 26.5535 23.5308 27.5916 22.6224C28.1134 22.1658 28.5709 21.8063 28.9001 21.5594C29.0649 21.4358 29.1979 21.3401 29.2913 21.2743C29.3381 21.2414 29.3749 21.2159 29.4009 21.1981L29.4317 21.1772L29.4407 21.1711L29.4436 21.1692L29.4446 21.1685C29.4448 21.1683 29.4454 21.1679 30.0001 22L29.4446 21.1685C29.9042 20.8621 30.5258 20.9858 30.8322 21.4453C31.1384 21.9046 31.0138 22.5256 30.5548 22.832Z" fill="#F1BD98"/>
<path fill-rule="evenodd" clip-rule="evenodd" d="M34.5548 27.832C34.5546 27.8322 34.555 27.8319 34.5548 27.832L34.0001 27C34.5548 27.832 34.5547 27.8321 34.5548 27.832L34.5512 27.8345L34.5309 27.8483C34.512 27.8612 34.4825 27.8817 34.4432 27.9093C34.3648 27.9645 34.2479 28.0486 34.1001 28.1594C33.8043 28.3812 33.3868 28.7092 32.9086 29.1276C31.9467 29.9692 30.7661 31.1538 29.8322 32.5547C29.5258 33.0142 28.9049 33.1384 28.4454 32.832C27.9859 32.5257 27.8617 31.9048 28.1681 31.4453C29.2341 29.8462 30.5535 28.5308 31.5916 27.6224C32.1134 27.1658 32.5709 26.8063 32.9001 26.5594C33.0649 26.4358 33.1979 26.3401 33.2913 26.2743C33.3381 26.2414 33.3749 26.2159 33.4009 26.1981L33.4317 26.1772L33.4407 26.1711L33.4436 26.1692L33.4446 26.1685C33.4448 26.1683 33.4454 26.1679 34.0001 27L33.4446 26.1685C33.9042 25.8621 34.5258 25.9858 34.8322 26.4453C35.1384 26.9046 35.0138 27.5256 34.5548 27.832Z" fill="white"/>
</svg>
