<svg width="96" height="96" viewBox="0 0 96 96" fill="none" xmlns="http://www.w3.org/2000/svg">
<path d="M87 37L48 85L9 37L30 13H66L87 37Z" fill="#38ACFF"/>
<path fill-rule="evenodd" clip-rule="evenodd" d="M48 87C47.3977 87 46.8276 86.7286 46.4478 86.2612L7.44777 38.2612C6.8334 37.505 6.85328 36.4162 7.49485 35.683L28.4948 11.683C28.8746 11.249 29.4233 11 30 11H66C66.5767 11 67.1254 11.249 67.5052 11.683L88.5051 35.683C89.1467 36.4162 89.1666 37.505 88.5522 38.2612L49.5522 86.2612C49.1724 86.7286 48.6023 87 48 87ZM30 13H66L87 37L48 85L9 37L30 13Z" fill="#042360"/>
<path d="M66 13L87 37H9L30 13H66Z" fill="#63BDFF"/>
<path d="M87 37L48 85V13H66L87 37Z" fill="#2D88F3"/>
<path d="M87 37H48V13H66L87 37Z" fill="#53A1FE"/>
<path d="M9 37L48 85L28 37L48 13H30L9 37Z" fill="#46CAF3"/>
<path d="M31 13L9 37H28L48 13H31Z" fill="#68DBFF"/>
<path d="M9 37L48 85L16 37L37 13H30L9 37Z" fill="#C1E9FF"/>
<path d="M30 13L9 37H16L37 13H30Z" fill="#D8F1FF"/>
<path d="M87 37L48 85L68 37L48 13H66L87 37Z" fill="#4E5CDE"/>
<path d="M66 13L87 37H68L48 13H66Z" fill="#6A78F5"/>
<path d="M87 37L48 85L80 37L59 13H66L87 37Z" fill="#2D88F3"/>
<path d="M66 13L87 37H80L59 13H66Z" fill="#52A1FE"/>
<path fill-rule="evenodd" clip-rule="evenodd" d="M26.6549 19.2443C27.0723 19.606 27.1174 20.2376 26.7557 20.6549L13.7557 35.6549C13.394 36.0723 12.7624 36.1174 12.3451 35.7557C11.9277 35.394 11.8826 34.7624 12.2443 34.3451L25.2443 19.3451C25.606 18.9277 26.2376 18.8826 26.6549 19.2443Z" fill="white"/>
<path fill-rule="evenodd" clip-rule="evenodd" d="M45.6549 19.2443C46.0723 19.606 46.1174 20.2376 45.7557 20.6549L32.7557 35.6549C32.394 36.0723 31.7624 36.1174 31.3451 35.7557C30.9277 35.394 30.8826 34.7624 31.2443 34.3451L44.2443 19.3451C44.606 18.9277 45.2376 18.8826 45.6549 19.2443Z" fill="#8FD0FF"/>
<path d="M57 50C57 50.5523 56.5523 51 56 51C55.4477 51 55 50.5523 55 50C55 49.4477 55.4477 49 56 49C56.5523 49 57 49.4477 57 50Z" fill="#2478DC"/>
<path d="M60 54C60 54.5523 59.5523 55 59 55C58.4477 55 58 54.5523 58 54C58 53.4477 58.4477 53 59 53C59.5523 53 60 53.4477 60 54Z" fill="#2478DC"/>
<path d="M56 59C56 59.5523 55.5523 60 55 60C54.4477 60 54 59.5523 54 59C54 58.4477 54.4477 58 55 58C55.5523 58 56 58.4477 56 59Z" fill="#2478DC"/>
<path d="M53 61C53 61.5523 52.5523 62 52 62C51.4477 62 51 61.5523 51 61C51 60.4477 51.4477 60 52 60C52.5523 60 53 60.4477 53 61Z" fill="#2478DC"/>
<path d="M53 67C53 67.5523 52.5523 68 52 68C51.4477 68 51 67.5523 51 67C51 66.4477 51.4477 66 52 66C52.5523 66 53 66.4477 53 67Z" fill="#2478DC"/>
<path d="M54 47C54 47.5523 53.5523 48 53 48C52.4477 48 52 47.5523 52 47C52 46.4477 52.4477 46 53 46C53.5523 46 54 46.4477 54 47Z" fill="#2478DC"/>
<path d="M62 45C62 45.5523 61.5523 46 61 46C60.4477 46 60 45.5523 60 45C60 44.4477 60.4477 44 61 44C61.5523 44 62 44.4477 62 45Z" fill="#2478DC"/>
<path d="M58 44.5C58 45.3284 57.3284 46 56.5 46C55.6716 46 55 45.3284 55 44.5C55 43.6716 55.6716 43 56.5 43C57.3284 43 58 43.6716 58 44.5Z" fill="#2478DC"/>
<path d="M56 54.5C56 55.3284 55.3284 56 54.5 56C53.6716 56 53 55.3284 53 54.5C53 53.6716 53.6716 53 54.5 53C55.3284 53 56 53.6716 56 54.5Z" fill="#2478DC"/>
</svg>
